<svg width="2416" height="2416" viewBox="0 0 2416 2416" fill="none" xmlns="http://www.w3.org/2000/svg">
<g clip-path="url(#clip0_604_10)">
<g filter="url(#filter0_d_604_10)">
<path d="M1199.62 39.2062C1178.27 40.2797 1157.34 45.5634 1138.07 54.7474L298.152 455.175C276.413 465.534 257.312 480.606 242.267 499.273C227.222 517.94 216.621 539.721 211.249 562.999L4.03525 1462.46C-0.749626 1483.18 -1.28512 1504.65 2.46046 1525.58C6.20605 1546.51 14.1566 1566.49 25.8416 1584.33C28.6749 1588.69 31.7222 1592.91 34.9723 1596.97L616.332 2318.19C631.38 2336.86 650.483 2351.92 672.223 2362.28C693.963 2372.63 717.78 2378 741.906 2378L1674.21 2377.79C1698.33 2377.8 1722.14 2372.45 1743.88 2362.11C1765.62 2351.78 1784.72 2336.73 1799.78 2318.09L2380.93 1596.76C2395.98 1578.09 2406.59 1556.3 2411.97 1533.01C2417.34 1509.72 2417.34 1485.54 2411.97 1462.25L2204.44 562.785C2199.06 539.507 2188.46 517.726 2173.42 499.059C2158.37 480.392 2139.27 465.32 2117.53 454.961L1277.5 54.7474C1253.27 43.1947 1226.49 37.8508 1199.62 39.2062V39.2062Z" fill="black"/>
</g>
<path d="M1208.5 536.447C1164.07 536.447 1120.73 540.655 1078.61 548.392C1076.98 548.664 1075.63 547.442 1075.63 545.813V393.515C1075.63 389.986 1072.78 387 1069.13 387H907.001C903.48 387 900.5 389.85 900.5 393.515V604.452C900.5 605.402 899.958 606.352 899.01 606.759C658.325 722.408 492 969.043 492 1254.5C492 1539.96 658.325 1786.46 899.01 1902.24C899.958 1902.65 900.5 1903.6 900.5 1904.55V2115.48C900.5 2119.01 903.344 2122 907.001 2122H1069.13C1072.65 2122 1075.63 2119.15 1075.63 2115.48V1963.05C1075.63 1961.42 1077.12 1960.2 1078.61 1960.47C1120.73 1968.21 1164.07 1972.42 1208.5 1972.42C1604.27 1972.42 1925 1650.99 1925 1254.36C1925 857.739 1604.13 536.447 1208.5 536.447ZM660.628 1254.5C660.628 1067.86 754.085 902.803 896.437 803.443C898.197 802.222 900.635 803.443 900.635 805.615V1703.38C900.635 1705.56 898.197 1706.78 896.437 1705.56C754.085 1606.33 660.628 1441.14 660.628 1254.5V1254.5ZM1269.18 1800.3C1203.62 1807.5 1140.24 1802.88 1080.64 1788.49C1077.66 1787.81 1075.63 1785.1 1075.63 1782.11V727.023C1075.63 724.037 1077.66 721.322 1080.64 720.643C1121.68 710.735 1164.48 705.441 1208.64 705.441C1521.65 705.441 1774.25 969.858 1755.56 1287.62C1739.98 1552.58 1532.48 1771.39 1269.31 1800.3H1269.18Z" fill="white"/>
</g>
<defs>
<filter id="filter0_d_604_10" x="-3" y="38" width="2424" height="2347" filterUnits="userSpaceOnUse" color-interpolation-filters="sRGB">
<feFlood flood-opacity="0" result="BackgroundImageFix"/>
<feColorMatrix in="SourceAlpha" type="matrix" values="0 0 0 0 0 0 0 0 0 0 0 0 0 0 0 0 0 0 127 0" result="hardAlpha"/>
<feOffset dx="1" dy="3"/>
<feGaussianBlur stdDeviation="2"/>
<feComposite in2="hardAlpha" operator="out"/>
<feColorMatrix type="matrix" values="0 0 0 0 0 0 0 0 0 0 0 0 0 0 0 0 0 0 0.25 0"/>
<feBlend mode="normal" in2="BackgroundImageFix" result="effect1_dropShadow_604_10"/>
<feBlend mode="normal" in="SourceGraphic" in2="effect1_dropShadow_604_10" result="shape"/>
</filter>
<clipPath id="clip0_604_10">
<rect width="2416" height="2416" fill="white"/>
</clipPath>
</defs>
</svg>
